<?xml version="1.0" encoding="UTF-8"?>
<svg xmlns="http://www.w3.org/2000/svg" version="1.1" viewBox="0 0 497.5 57.8">
  <defs>
    <style>
      .cls-1 {
        font-family: Arial-BoldMT, Arial;
        font-size: 30px;
        font-weight: 700;
      }

      .cls-1, .cls-2 {
        fill: #fff;
      }

      .cls-3 {
        fill: #c0bfbf;
      }

      .cls-4 {
        isolation: isolate;
      }

      .cls-5 {
        fill: #152041;
      }
    </style>
  </defs>
  <!-- Generator: Adobe Illustrator 28.7.5, SVG Export Plug-In . SVG Version: 1.2.0 Build 176)  -->
  <g>
    <g id="_圖層_1" data-name="圖層_1">
      <g>
        <path class="cls-3" d="M471,57.8H31.3c-14.6,0-26.5-11.9-26.5-26.5S16.7,4.8,31.3,4.8h439.7c14.6,0,26.5,11.9,26.5,26.5s-11.8,26.5-26.5,26.5"/>
        <path class="cls-5" d="M466.2,53H26.5C11.9,53,0,41.1,0,26.5S11.9,0,26.5,0h439.7C480.8,0,492.7,11.9,492.7,26.5s-11.8,26.5-26.5,26.5"/>
        <g class="cls-4">
          <path class="cls-2" d="M52.3,16.3h8.6c1.7,0,3,.1,3.8.2s1.6.4,2.2.9,1.2,1,1.6,1.8c.4.7.7,1.6.7,2.5s-.3,1.9-.8,2.8-1.3,1.5-2.2,1.9c1.3.4,2.3,1,3,1.9s1.1,2,1.1,3.2-.2,1.9-.7,2.8-1.1,1.7-1.9,2.2c-.8.6-1.8.9-2.9,1-.7,0-2.5,0-5.2,0h-7.3s0-21.3,0-21.3ZM56.6,19.9v5h2.8c1.7,0,2.7,0,3.1-.1.7-.1,1.3-.3,1.8-.8.4-.4.6-1,.6-1.7s-.2-1.2-.5-1.6-.9-.7-1.6-.8c-.4,0-1.7-.1-3.7-.1h-2.5s0,.1,0,.1ZM56.6,28.4v5.7h4c1.6,0,2.6,0,3,0,.6,0,1.2-.4,1.6-.9s.6-1.1.6-1.8-.2-1.2-.5-1.6-.8-.8-1.4-1-1.9-.3-3.8-.3h-3.5Z"/>
          <path class="cls-2" d="M77,27l-3.7-.7c.4-1.5,1.1-2.6,2.2-3.3s2.5-1.1,4.6-1.1,3.2.2,4.1.7,1.5,1,1.9,1.7.5,1.9.5,3.7v4.8c0,1.4,0,2.4.2,3,0,.7.4,1.3.7,2.1h-4.1c0-.3-.2-.7-.4-1.2,0-.2,0-.4,0-.5-.7.7-1.5,1.2-2.3,1.5s-1.7.5-2.6.5c-1.6,0-2.9-.4-3.8-1.3s-1.4-2-1.4-3.3.2-1.7.6-2.4c.4-.7,1-1.2,1.8-1.6s1.8-.7,3.3-1c1.9-.4,3.3-.7,4-1v-.4c0-.8-.2-1.4-.6-1.7-.4-.3-1.1-.5-2.2-.5s-1.3.1-1.7.4-.8.8-1,1.6ZM82.5,30.3c-.5.2-1.4.4-2.5.6s-1.9.5-2.2.7c-.5.4-.8.9-.8,1.5s.2,1.1.6,1.5,1,.6,1.6.6,1.5-.2,2.1-.7c.5-.4.8-.8,1-1.4,0-.4.2-1,.2-2,0,0,0-.8,0-.8Z"/>
          <path class="cls-2" d="M104.2,26.8l-4.1.7c0-.8-.4-1.4-.9-1.8s-1.1-.6-1.9-.6-1.8.4-2.5,1.1c-.6.7-.9,1.9-.9,3.6s.3,3.1.9,3.9,1.5,1.1,2.5,1.1,1.4-.2,1.9-.7c.5-.4.8-1.2,1.1-2.3l4,.7c-.4,1.9-1.2,3.3-2.4,4.2s-2.8,1.4-4.8,1.4-4.1-.7-5.4-2.2-2-3.4-2-6,.7-4.6,2-6,3.2-2.1,5.5-2.1,3.4.4,4.5,1.2c1.2.9,2,2.1,2.5,3.8Z"/>
          <path class="cls-2" d="M107.1,37.8v-21.5h4.1v11.4l4.8-5.5h5.1l-5.3,5.7,5.7,9.9h-4.4l-3.9-7-1.9,2v5s-4.2,0-4.2,0Z"/>
          <path class="cls-2" d="M139.4,22.2v3.3h-2.8v6.3c0,1.3,0,2,.1,2.2s.2.4.4.5.4.2.7.2.9,0,1.7-.4l.4,3.2c-1,.4-2,.6-3.3.6s-1.4,0-2-.4c-.6-.2-1-.6-1.3-1s-.5-.9-.6-1.6c-.1-.5-.1-1.4-.1-2.9v-6.8h-1.9v-3.3h1.9v-3.1l4.1-2.4v5.5h2.7q0,.1,0,.1Z"/>
          <path class="cls-2" d="M141.3,29.8c0-1.4.3-2.7,1-4s1.6-2.3,2.9-2.9,2.6-1,4.1-1c2.4,0,4.3.8,5.8,2.3s2.3,3.5,2.3,5.8-.8,4.3-2.3,5.9c-1.5,1.5-3.4,2.3-5.7,2.3s-2.8-.3-4.1-1-2.3-1.6-3-2.8c-.6-1.3-1-2.8-1-4.6ZM145.6,30c0,1.5.4,2.7,1.1,3.5s1.6,1.2,2.7,1.2,2-.4,2.7-1.2,1.1-2,1.1-3.6-.4-2.7-1.1-3.5-1.6-1.2-2.7-1.2-2,.4-2.7,1.2-1.1,2-1.1,3.6Z"/>
          <path class="cls-2" d="M262.3,37.8h-4.7l-1.9-4.9h-8.6l-1.8,4.9h-4.6l8.4-21.5h4.6l8.6,21.5ZM254.3,29.3l-3-8-2.9,8h5.9Z"/>
          <path class="cls-2" d="M278.7,37.8h-4.1v-7.9c0-1.7-.1-2.8-.3-3.3-.2-.5-.5-.9-.9-1.1s-.9-.4-1.4-.4-1.4.2-1.9.6-1,.9-1.2,1.6-.3,1.8-.3,3.6v7h-4.1v-15.7h3.8v2.3c1.4-1.8,3.1-2.6,5.1-2.6s1.7.2,2.5.5,1.3.7,1.7,1.3.7,1.1.8,1.7.2,1.6.2,2.8v9.6h0Z"/>
          <path class="cls-2" d="M297,37.8h-4.1v-7.9c0-1.7-.1-2.8-.3-3.3-.2-.5-.5-.9-.9-1.1s-.9-.4-1.4-.4-1.4.2-1.9.6-1,.9-1.2,1.6-.2,1.7-.2,3.4v7h-4.1v-15.5h3.8v2.3c1.4-1.8,3.1-2.6,5.1-2.6s1.7.2,2.5.5,1.3.7,1.7,1.3.7,1.1.8,1.7.2,1.6.2,2.8v9.6Z"/>
          <path class="cls-2" d="M311.5,37.8v-2.3c-.6.8-1.3,1.5-2.2,2s-1.9.7-2.9.7-2-.2-2.8-.7-1.4-1.1-1.8-1.9-.6-2-.6-3.4v-9.8h4.1v7.1c0,2.2.1,3.5.2,4,.2.5.4.9.8,1.2s.9.4,1.5.4,1.3-.2,1.9-.6c.6-.4.9-.9,1.1-1.4.2-.6.3-2,.3-4.2v-6.6h4.1v15.6h-3.7Z"/>
          <path class="cls-2" d="M322.6,27l-3.7-.7c.4-1.5,1.1-2.6,2.2-3.3s2.5-1.1,4.6-1.1,3.2.2,4.1.7,1.5,1,1.9,1.7.5,1.9.5,3.7v4.8c0,1.4.1,2.4.2,3,.1.7.4,1.3.7,2.1h-4.1c-.1-.3-.2-.7-.4-1.2-.1-.2-.1-.4-.1-.5-.7.7-1.5,1.2-2.3,1.5s-1.7.5-2.6.5c-1.6,0-2.9-.4-3.8-1.3s-1.4-2-1.4-3.3.2-1.7.6-2.4c.4-.7,1-1.2,1.8-1.6s1.8-.7,3.3-1c1.9-.4,3.3-.7,4-1v-.4c0-.8-.2-1.4-.6-1.7-.4-.3-1.1-.5-2.2-.5s-1.3.1-1.7.4-.7.8-1,1.6ZM328.1,30.3c-.5.2-1.4.4-2.5.6s-1.9.5-2.2.7c-.5.4-.8.9-.8,1.5s.2,1.1.6,1.5,1,.6,1.6.6,1.5-.2,2.1-.7c.5-.4.8-.8,1-1.4.1-.4.2-1,.2-2v-.8h0Z"/>
          <path class="cls-2" d="M336.2,37.8v-21.5h4.1v21.5h-4.1Z"/>
          <path class="cls-2" d="M352.9,37.8v-21.5h9.1c2.3,0,4,.2,5,.6s1.9,1.1,2.5,2.1.9,2.1.9,3.4-.5,2.9-1.4,4-2.4,1.7-4.2,2c.9.5,1.7,1.1,2.3,1.8.6.7,1.4,1.8,2.5,3.5l2.6,4.2h-5.2l-3.1-4.7c-1.1-1.7-1.9-2.7-2.3-3.2-.4-.4-.8-.7-1.3-.9-.5-.2-1.2-.2-2.2-.2h-.9v9h-4.3ZM357.3,25.4h3.2c2.1,0,3.4-.1,3.9-.3s.9-.5,1.2-.9.4-1,.4-1.6-.2-1.3-.6-1.8-.9-.7-1.6-.8c-.4,0-1.4-.1-3.2-.1h-3.4v5.5s.1,0,.1,0Z"/>
          <path class="cls-2" d="M383.6,32.8l4.1.7c-.5,1.5-1.4,2.6-2.5,3.4-1.1.8-2.6,1.2-4.3,1.2-2.7,0-4.7-.9-6-2.7-1-1.4-1.5-3.2-1.5-5.4s.7-4.6,2-6.1,3.1-2.2,5.1-2.2,4.1.8,5.5,2.3,2,3.9,1.9,7h-10.3c0,1.2.4,2.2,1,2.8.6.7,1.4,1,2.4,1s1.2-.2,1.6-.5.7-.7,1-1.5ZM383.8,28.7c0-1.2-.3-2.1-.9-2.7s-1.3-.9-2.1-.9-1.6.3-2.2,1-.9,1.5-.9,2.7h6.1Z"/>
          <path class="cls-2" d="M391.1,22.2h3.8v2.3c.5-.8,1.2-1.4,2-1.9s1.8-.7,2.8-.7c1.8,0,3.3.7,4.6,2.1s1.9,3.4,1.9,5.9-.6,4.6-1.9,6.1c-1.3,1.4-2.8,2.2-4.6,2.2s-1.6-.2-2.3-.5-1.4-.9-2.2-1.8v7.8h-4.1v-21.5h0ZM395.2,29.7c0,1.7.3,3,1,3.9.7.8,1.5,1.3,2.5,1.3s1.8-.4,2.4-1.2,1-2,1-3.8-.3-2.8-1-3.6-1.5-1.2-2.4-1.2-1.8.4-2.5,1.2c-.7.8-1,1.9-1,3.4Z"/>
          <path class="cls-2" d="M408.6,29.8c0-1.4.3-2.7,1-4s1.6-2.3,2.9-2.9,2.6-1,4.1-1c2.4,0,4.3.8,5.8,2.3s2.3,3.5,2.3,5.8-.8,4.3-2.3,5.9c-1.5,1.5-3.4,2.3-5.7,2.3s-2.8-.3-4.1-1-2.3-1.6-3-2.8c-.6-1.3-1-2.8-1-4.6ZM412.8,30c0,1.5.4,2.7,1.1,3.5s1.6,1.2,2.7,1.2,2-.4,2.7-1.2,1.1-2,1.1-3.6-.4-2.7-1.1-3.5-1.6-1.2-2.7-1.2-2,.4-2.7,1.2-1.1,2-1.1,3.6Z"/>
          <path class="cls-2" d="M431.8,37.8h-4.1v-15.6h3.8v2.2c.7-1,1.2-1.7,1.8-2.1s1.1-.5,1.8-.5,1.8.3,2.7.8l-1.3,3.6c-.7-.4-1.3-.7-1.9-.7s-1.1.2-1.5.5-.7.9-.9,1.7-.3,2.6-.3,5.2v4.9s-.1,0-.1,0Z"/>
          <path class="cls-2" d="M446.7,22.2v3.3h-2.8v6.3c0,1.3,0,2,.1,2.2s.2.4.4.5.4.2.7.2.9,0,1.7-.4l.4,3.2c-1,.4-2,.6-3.3.6s-1.4,0-2-.4c-.6-.2-1-.6-1.3-1s-.5-.9-.6-1.6c-.1-.5-.1-1.4-.1-2.9v-6.8h-1.9v-3.3h1.9v-3.1l4.1-2.4v5.5h2.7Z"/>
        </g>
      </g>
      <text class="cls-1" transform="translate(166.1 37.7)"><tspan x="0" y="0">2024</tspan></text>
    </g>
  </g>
</svg>