<?xml version="1.0" encoding="UTF-8"?>
<svg xmlns="http://www.w3.org/2000/svg" version="1.1" viewBox="0 0 497.5 57.8">
  <defs>
    <style>
      .cls-1 {
        font-family: Arial-BoldMT, Arial;
        font-size: 30px;
        font-weight: 700;
      }

      .cls-1, .cls-2 {
        fill: #fff;
      }

      .cls-3 {
        fill: #c0bfbf;
      }

      .cls-4 {
        isolation: isolate;
      }

      .cls-5 {
        fill: #152041;
      }
    </style>
  </defs>
  <!-- Generator: Adobe Illustrator 28.7.5, SVG Export Plug-In . SVG Version: 1.2.0 Build 176)  -->
  <g>
    <g id="_圖層_1" data-name="圖層_1">
      <g>
        <path class="cls-3" d="M471,57.8H31.3c-14.6,0-26.5-11.9-26.5-26.5S16.7,4.8,31.3,4.8h439.7c14.6,0,26.5,11.9,26.5,26.5s-11.8,26.5-26.5,26.5"/>
        <path class="cls-5" d="M466.2,53H26.5C11.9,53,0,41.1,0,26.5S11.9,0,26.5,0h439.7C480.8,0,492.7,11.9,492.7,26.5s-11.8,26.5-26.5,26.5"/>
      </g>
      <g>
        <path class="cls-2" d="M140.1,27.8c2-1.8,3.6-3.7,4.5-5.5h-5.1v-2.2h7.7v2.1c-.8,2.2-2.5,4.1-3.8,5.5h3.6c-.2,2.6-.7,5-1.7,6.7,2.2,1,4.6,1.9,7.3,1.9h9.7c0,0,4-.3,4-.3l-.8,2.5h-13.2c-3,0-5.8-.8-8-2.2-1,1.2-2,2.3-3.5,3.6l-1.9-1.4c2.2-1.9,5-4.7,5.7-8.5h-4.5v-2.2ZM144.5,19.1c-.8-2.2-2.2-3.8-4.4-4.9l1.8-1.4c2.1,1.1,3.5,2.9,4.6,5l-2,1.3ZM149.8,33.6c2.2-.5,5.3-2.5,6.6-3.8-1.3-1.4-3.1-4.6-3.5-7.6h-1.5c0,5.2-.8,10.1-2.7,13l-2-1c1.7-3.1,2.4-6.5,2.4-11.7v-8.4h15.8v2.2h-13.5v3.7h11.6c-.1,3.8-1.4,7.2-3.5,9.7,1.6,1.6,3.7,2.8,6.2,3.8l-1.7,1.8c-2.3-1.1-4.1-2.2-6-4.1-2,1.7-3.6,2.9-6.9,4.1l-1.3-1.7ZM155,22.3c.5,2.1,1.2,4.1,2.9,6.1,1.5-1.7,2.1-3.9,2.7-6.1h-5.6Z"/>
        <path class="cls-2" d="M191.2,38.5v-2.1h-17.7v2.4h-2.3V15.3h22.2c0-.1,0,23.2,0,23.2h-2.2ZM173.5,34.1h17.7v-16.8h-17.6v16.8ZM176.7,30.7v-10.1h11.2v10.1h-11.2ZM179.1,28.5h6.6v-5.7h-6.6v5.7Z"/>
      </g>
      <g class="cls-4">
        <path class="cls-2" d="M275.1,13.2c-.1.4-.2,1.2-.6,2.3h16.8v2.2h-9.1v3.9h7.6v2.2h-7.6v4.9h10.3v2.2h-10.3v8.6h-2.4v-8.6h-11.7v-2.2h3.7v-7.1h8v-3.8h-6.2c-1.3,2.7-2.7,4.7-4.1,6l-1.9-1.5c2.6-2.3,4.4-5.6,5.5-10l2,.9ZM279.8,23.8h-5.7v4.9h5.6v-4.9Z"/>
        <path class="cls-2" d="M305.1,13.2c-.1.4-.2,1.2-.6,2.3h16.8v2.2h-9.1v3.9h7.6v2.2h-7.6v4.9h10.3v2.2h-10.3v8.6h-2.4v-8.6h-11.7v-2.2h3.7v-7.1h8v-3.8h-6.2c-1.3,2.7-2.7,4.7-4.1,6l-1.9-1.5c2.6-2.3,4.4-5.6,5.5-10l2,.9ZM309.8,23.8h-5.7v4.9h5.6v-4.9Z"/>
        <path class="cls-2" d="M331.8,26.8v-6.2h-4.6v-2.2h4.6v-5.5h2.4v5.5h4.1v2.2h-4.1v5.5l3.9-1.3v2.3l-3.9,1.4v8c0,1.2-.4,2-1.1,2.4-.6.4-2.1.3-4.5,0l-.8-2.3c1.6.3,2.7.4,3.3.5.4,0,.6-.2.6-.8v-6.9l-4.2,1.5-1.1-2.3,5.4-1.7ZM351.8,39.4c-1.9-1-3.5-2.3-4.7-3.8-.6,1-1.9,2.3-4,3.9l-1.2-1.2v1.3h-2.4V13.9h11.2c-.1,3-.5,5.1-1.1,6.4-.4.9-1,1.4-1.9,1.5-1.2.2-2.4.1-3.7-.3l-.6-2.3c1.2.3,2.3.5,3.2.5s.9-.3,1.1-1c.2-.8.4-1.7.4-2.5h-6.4v7.1h9.1c-.1,3.6-1,7-2.6,10.2.9,1.2,2.5,2.6,5,4.2l-1.4,1.7ZM341.9,25.4v11.9c1.7-1.1,2.9-2.3,3.8-3.9-1.3-2.4-2.1-5.1-2.5-8,0,0-1.3,0-1.3,0ZM345.4,25.4c.3,2.1.8,4,1.7,5.9.9-1.9,1.4-3.8,1.5-5.9h-3.2Z"/>
      </g>
      <text class="cls-1" transform="translate(199.3 37.3)"><tspan x="0" y="0">2024</tspan></text>
    </g>
  </g>
</svg>