<?xml version="1.0" encoding="UTF-8"?>
<svg xmlns="http://www.w3.org/2000/svg" version="1.1" viewBox="0 0 497.5 57.8">
  <defs>
    <style>
      .cls-1 {
        fill: #c0bfbf;
      }

      .cls-2, .cls-3 {
        isolation: isolate;
      }

      .cls-3 {
        font-family: Arial-BoldMT, Arial;
        font-size: 30px;
        font-weight: 700;
      }

      .cls-3, .cls-4 {
        fill: #fff;
      }

      .cls-5 {
        fill: #152041;
      }
    </style>
  </defs>
  <!-- Generator: Adobe Illustrator 28.7.5, SVG Export Plug-In . SVG Version: 1.2.0 Build 176)  -->
  <g>
    <g id="_圖層_1" data-name="圖層_1">
      <g id="_圖層_1-2" data-name="_圖層_1">
        <g>
          <path class="cls-1" d="M471,57.8H31.3c-14.6,0-26.5-11.9-26.5-26.5S16.7,4.8,31.3,4.8h439.7c14.6,0,26.5,11.9,26.5,26.5s-11.8,26.5-26.5,26.5"/>
          <path class="cls-5" d="M466.2,53H26.5C11.9,53,0,41.1,0,26.5S11.9,0,26.5,0h439.7C480.8,0,492.7,11.9,492.7,26.5s-11.8,26.5-26.5,26.5"/>
          <g class="cls-2">
            <path class="cls-4" d="M26,11.8c-.1.4-.2,1.2-.6,2.3h16.8v2.2h-9.1v3.9h7.6v2.2h-7.6v4.9h10.3v2.2h-10.3v8.6h-2.4v-8.6h-11.6v-2.2h3.7v-7.1h8v-3.8h-6.2c-1.3,2.7-2.7,4.7-4.1,6l-1.9-1.5c2.6-2.3,4.4-5.6,5.5-10,0,0,1.9.9,1.9.9ZM30.8,22.4h-5.7v4.9h5.6v-4.9h.1Z"/>
            <path class="cls-4" d="M52.8,25.4v-6.2h-4.6v-2.2h4.6v-5.5h2.4v5.5h4.1v2.2h-4.1v5.5l3.9-1.3v2.3l-3.9,1.3v8c0,1.2-.4,2-1.1,2.4-.6.4-2.1.3-4.5,0l-.8-2.3c1.6.3,2.7.4,3.3.5.4,0,.6-.2.6-.8v-6.9l-4.2,1.5-1.1-2.3,5.4-1.6h0ZM72.8,38c-1.9-1-3.5-2.3-4.7-3.8-.6,1-1.9,2.3-4,3.9l-1.2-1.2v1.3h-2.4V12.5h11.2c0,3-.5,5.1-1.1,6.4-.4.9-1,1.4-1.9,1.5-1.2.2-2.4.1-3.7-.3l-.6-2.3c1.2.3,2.3.5,3.2.5s.9-.3,1.1-1c.2-.8.4-1.7.4-2.5h-6.4v7.1h9.3c0,3.6-1,7-2.6,10.2.9,1.2,2.5,2.6,5,4.2,0,0-1.6,1.7-1.6,1.7ZM62.9,24v11.9c1.7-1.1,2.9-2.3,3.8-3.9-1.3-2.4-2.1-5.1-2.5-8h-1.3ZM66.4,24c.3,2.1.8,4,1.7,5.9.9-1.9,1.4-3.8,1.5-5.9h-3.2Z"/>
            <path class="cls-4" d="M100.9,38.2c-3.7-3.8-5.6-8.3-5.6-13.6s1.9-9.8,5.6-13.6l1.5,1.4c-3.4,3.5-5,7.5-5,12.2s1.7,8.8,5,12.2l-1.5,1.4Z"/>
          </g>
          <g class="cls-2">
            <path class="cls-4" d="M182.7,10.1c-.1.4-.2,1.2-.6,2.3h16.9v2.2h-9.1v3.9h7.6v2.2h-7.6v4.9h10.3v2.2h-10.3v8.6h-2.4v-8.6h-11.7v-2.2h3.7v-7.1h8v-3.8h-6.2c-1.3,2.7-2.7,4.7-4.1,6l-1.9-1.5c2.6-2.3,4.4-5.6,5.5-10l1.9.9h0ZM187.5,20.7h-5.7v4.9h5.6v-4.9h0Z"/>
            <path class="cls-4" d="M212,27.9v-2.6h8.1v2.6h-8.1Z"/>
          </g>
          <g class="cls-2">
            <path class="cls-4" d="M306.1,11.8c-.1.4-.2,1.2-.6,2.3h16.8v2.2h-9.1v3.9h7.6v2.2h-7.6v4.9h10.3v2.2h-10.3v8.6h-2.4v-8.6h-11.7v-2.2h3.7v-7.1h8v-3.8h-6.2c-1.3,2.7-2.7,4.7-4.1,6l-1.9-1.5c2.6-2.3,4.4-5.6,5.5-10l2,.9h0ZM310.9,22.4h-5.7v4.9h5.6v-4.9h.1Z"/>
            <path class="cls-4" d="M331.3,38.2l-1.5-1.4c3.4-3.5,5-7.5,5-12.2s-1.7-8.7-5-12.2l1.5-1.4c3.7,3.8,5.6,8.3,5.6,13.6s-1.9,9.8-5.6,13.6Z"/>
          </g>
          <path class="cls-4" d="M484.5,26.5c0-10.1-8.2-18.3-18.3-18.3s-18.3,8.2-18.3,18.3,8.2,18.3,18.3,18.3,18.3-8.2,18.3-18.3"/>
          <polygon class="cls-5" points="468.3 26.5 474 26.5 465.5 38.8 459.8 38.8 468.3 26.5"/>
          <polygon class="cls-5" points="468.3 26.5 474 26.5 465.5 14.2 459.8 14.2 468.3 26.5"/>
        </g>
        <g class="cls-2">
          <text class="cls-3" transform="translate(106.2 36)"><tspan x="0" y="0">2016</tspan></text>
        </g>
        <g class="cls-2">
          <text class="cls-3" transform="translate(227.1 36)"><tspan x="0" y="0">2023</tspan></text>
        </g>
      </g>
    </g>
  </g>
</svg>