<?xml version="1.0" encoding="UTF-8"?>
<svg xmlns="http://www.w3.org/2000/svg" version="1.1" viewBox="0 0 393 53">
  <defs>
    <style>
      .cls-1 {
        font-family: Arial-BoldMT, Arial;
        font-size: 30px;
        font-weight: 700;
      }

      .cls-1, .cls-2 {
        fill: #fff;
      }

      .cls-3 {
        isolation: isolate;
      }

      .cls-4 {
        fill: #8e1d2b;
      }
    </style>
  </defs>
  <!-- Generator: Adobe Illustrator 28.7.5, SVG Export Plug-In . SVG Version: 1.2.0 Build 176)  -->
  <g>
    <g id="_圖層_1" data-name="圖層_1">
      <g>
        <polygon class="cls-4" points="0 0 0 53 311 53 347.3 0 0 0"/>
        <polygon class="cls-4" points="354.5 0 317.7 53 334 53 370.8 0 354.5 0"/>
        <polygon class="cls-4" points="376.8 0 340 53 356.3 53 393 0 376.8 0"/>
      </g>
      <g class="cls-3">
        <path class="cls-2" d="M92.4,11.8c0,.4-.2,1.2-.6,2.3h16.8v2.2h-9.1v3.9h7.6v2.2h-7.6v4.9h10.3v2.2h-10.3v8.6h-2.4v-8.6h-11.7v-2.2h3.7v-7.1h8v-3.8h-6.2c-1.3,2.7-2.7,4.7-4.1,6l-1.9-1.5c2.6-2.3,4.4-5.6,5.5-10l2,.9ZM97.1,22.4h-5.7v4.9h5.6v-4.9Z"/>
        <path class="cls-2" d="M122.4,11.8c0,.4-.2,1.2-.6,2.3h16.8v2.2h-9.1v3.9h7.6v2.2h-7.6v4.9h10.3v2.2h-10.3v8.6h-2.4v-8.6h-11.7v-2.2h3.7v-7.1h8v-3.8h-6.2c-1.3,2.7-2.7,4.7-4.1,6l-1.9-1.5c2.6-2.3,4.4-5.6,5.5-10l2,.9ZM127.1,22.4h-5.7v4.9h5.6v-4.9Z"/>
        <path class="cls-2" d="M149.1,25.4v-6.2h-4.6v-2.2h4.6v-5.5h2.4v5.5h4.1v2.2h-4.1v5.5l3.9-1.3v2.3l-3.9,1.4v8c0,1.2-.4,2-1.1,2.4-.6.4-2.1.3-4.5,0l-.8-2.3c1.6.3,2.7.4,3.3.5.4,0,.6-.2.6-.8v-6.9l-4.2,1.5-1.1-2.3,5.4-1.7ZM169.1,38c-1.9-1-3.5-2.3-4.7-3.8-.6,1-1.9,2.3-4,3.9l-1.2-1.2v1.3h-2.4V12.5h11.2c-.1,3-.5,5.1-1.1,6.4-.4.9-1,1.4-1.9,1.5-1.2.2-2.4.1-3.7-.3l-.6-2.3c1.2.3,2.3.5,3.2.5s.9-.3,1.1-1c.2-.8.4-1.7.4-2.5h-6.4v7.1h9.1c-.1,3.6-1,7-2.6,10.2.9,1.2,2.5,2.6,5,4.2l-1.4,1.7ZM159.2,24v11.9c1.7-1.1,2.9-2.3,3.8-3.9-1.3-2.4-2.1-5.1-2.5-8h-1.3ZM162.7,24c.3,2.1.8,4,1.7,5.9.9-1.9,1.4-3.8,1.5-5.9h-3.2Z"/>
      </g>
      <text class="cls-1" transform="translate(14.2 35.8)"><tspan x="0" y="0">2024</tspan></text>
    </g>
  </g>
</svg>