<?xml version="1.0" encoding="UTF-8"?>
<svg xmlns="http://www.w3.org/2000/svg" version="1.1" viewBox="0 0 516.5 53">
  <defs>
    <style>
      .cls-1 {
        font-family: Arial-BoldMT, Arial;
        font-size: 30px;
        font-weight: 700;
      }

      .cls-1, .cls-2 {
        fill: #fff;
      }

      .cls-3 {
        isolation: isolate;
      }

      .cls-4 {
        fill: #8e1d2b;
      }
    </style>
  </defs>
  <!-- Generator: Adobe Illustrator 28.7.5, SVG Export Plug-In . SVG Version: 1.2.0 Build 176)  -->
  <g>
    <g id="_圖層_1" data-name="圖層_1">
      <g>
        <polygon class="cls-4" points="434.5 53 0 53 0 0 470.8 0 434.5 53"/>
        <polygon class="cls-4" points="457.5 53 441.2 53 478 0 494.3 0 457.5 53"/>
        <polygon class="cls-4" points="479.8 53 463.5 53 500.2 0 516.5 0 479.8 53"/>
      </g>
      <g class="cls-3">
        <path class="cls-2" d="M25.7,11.4c-.1,1-.4,1.8-.6,2.3h16.8v2.2h-9.2v3.9h7.6v2.2h-7.6v4.9h10.3v2.2h-10.3v8.6h-2.4v-8.6h-11.6v-2.2h3.7v-7.1h8v-3.8h-6.2c-1,2-2.1,4.1-4.1,6l-1.9-1.5c2.7-2.4,4.4-5.7,5.5-10l2,.9ZM24.7,22v4.9h5.6v-4.9h-5.6Z"/>
        <path class="cls-2" d="M59.3,21.3c-.6,1.4-1.1,2.6-1.6,3.3h2.8v2.1h-4.5v2.4h5.6v2.1h-5.6v6.3h-2.3v-6.4h-6.1v-2.1h6.2v-2.4h-4.7v-2.1h3.4c-.6-1.2-1.6-2.2-2.5-3.1l1.9-.8h-3.8v-2.2h5.8v-2.4h-4.9v-2.2h4.8v-3.2h2.4v3.1h4.6v2.2h-4.6v2.4h5.6v2.1h-3.9l1.4.9ZM52,20.6c1.1,1.1,2,2.7,2.4,4h.8c.9-1.1,1.4-2.4,2.1-4h-5.3ZM64.1,37.7h-2.4V12.1h11c0,2.4-.3,4.5-1.1,6.4-.3.7-1,1.5-2,1.5-1.2.1-2.2-.1-3.4-.2l-.8-2.3c.8.1,2.6.6,3.5.4.4-.1.6-.5.8-1,.3-.9.4-1.7.5-2.5h-6.2v7.1h8.8c0,3.9-1.1,7.2-2.7,10.2.8,1.2,2,2.8,4.4,4.2l-1.6,1.7c-1.7-1.1-3-2.4-4.2-3.9-1.4,1.5-2.8,3.1-3.6,3.9l-1.2-1.3v1.4s.2,0,.2,0ZM64.1,35.5c1.7-1.4,2.5-2.4,3.5-3.9-1.3-2.4-2.2-5.2-2.5-8h-1v11.9ZM67.4,23.5c.2,2,.6,3.4,1.5,5.5.8-1.4,1.5-3,1.7-5.5h-3.2Z"/>
        <path class="cls-2" d="M100.4,37.7c-5.2-5.3-7.1-13.6-4.2-20.5,1-2.4,2.4-4.7,4.3-6.7l1.5,1.4c-2,2.1-3.4,4.4-4.3,7.1-1.8,6.2-.2,12.7,4.3,17.3l-1.6,1.4Z"/>
      </g>
      <g class="cls-3">
        <path class="cls-2" d="M182.4,11.4c-.1,1-.4,1.8-.6,2.3h16.8v2.2h-9.1v3.9h7.6v2.2h-7.6v4.9h10.3v2.2h-10.3v8.6h-2.4v-8.6h-11.7v-2.2h3.7v-7.1h8v-3.8h-6.2c-1,2-2.1,4.1-4.1,6l-1.9-1.5c2.7-2.4,4.4-5.7,5.5-10l2,.9ZM181.4,22v4.9h5.6v-4.9h-5.6Z"/>
      </g>
      <path class="cls-2" d="M212.3,30.3v-4.1h8.1v4.1h-8.1Z"/>
      <path class="cls-2" d="M244.1,79.8v3.8h-14.4c.2-1.4.6-2.8,1.4-4.1.8-1.3,2.3-3,4.6-5.1,1.9-1.7,3-2.9,3.4-3.5.6-.8.8-1.7.8-2.5s-.2-1.6-.7-2.1-1.2-.7-2-.7-1.5.3-2.1.8-.8,1.4-.9,2.6l-4.1-.4c.2-2.3,1-3.9,2.3-4.9s2.9-1.5,4.8-1.5,3.8.6,5,1.7,1.8,2.6,1.8,4.3-.2,1.9-.5,2.8-.9,1.8-1.6,2.7c-.5.6-1.4,1.5-2.7,2.7s-2.1,2-2.5,2.4-.6.8-.8,1.1h8.2Z"/>
      <path class="cls-2" d="M253.9,62.1c2.1,0,3.7.7,4.9,2.2,1.4,1.8,2.1,4.7,2.1,8.7s-.7,7-2.1,8.8c-1.2,1.5-2.8,2.2-4.9,2.2s-3.8-.8-5.1-2.4c-1.3-1.6-1.9-4.5-1.9-8.6s.7-7,2.1-8.7c1.2-1.5,2.8-2.2,4.9-2.2ZM253.9,65.5c-.5,0-.9.2-1.3.5-.4.3-.7.9-.9,1.7-.3,1.1-.4,2.9-.4,5.4s.1,4.3.4,5.2c.3.9.6,1.6,1,1.9s.8.5,1.3.5.9-.2,1.3-.5c.4-.3.7-.9.9-1.7.3-1.1.4-2.8.4-5.4s-.1-4.2-.4-5.2-.6-1.6-1-1.9c-.4-.3-.8-.5-1.3-.5Z"/>
      <path class="cls-2" d="M277.5,79.8v3.8h-14.4c.2-1.4.6-2.8,1.4-4.1.8-1.3,2.3-3,4.6-5.1,1.9-1.7,3-2.9,3.4-3.5.6-.8.8-1.7.8-2.5s-.2-1.6-.7-2.1-1.2-.7-2-.7-1.5.3-2.1.8-.8,1.4-.9,2.6l-4.1-.4c.2-2.3,1-3.9,2.3-4.9s2.9-1.5,4.8-1.5,3.8.6,5,1.7,1.8,2.6,1.8,4.3-.2,1.9-.5,2.8-.9,1.8-1.6,2.7c-.5.6-1.4,1.5-2.7,2.7s-2.1,2-2.5,2.4-.6.8-.8,1.1h8.2Z"/>
      <path class="cls-2" d="M295.2,79.8v3.8h-14.4c.2-1.4.6-2.8,1.4-4.1.8-1.3,2.3-3,4.6-5.1,1.9-1.7,3-2.9,3.4-3.5.6-.8.8-1.7.8-2.5s-.2-1.6-.7-2.1-1.2-.7-2-.7-1.5.3-2.1.8-.8,1.4-.9,2.6l-4.1-.4c.2-2.3,1-3.9,2.3-4.9s2.9-1.5,4.8-1.5,3.8.6,5,1.7,1.8,2.6,1.8,4.3-.2,1.9-.5,2.8-.9,1.8-1.6,2.7c-.5.6-1.4,1.5-2.7,2.7s-2.1,2-2.5,2.4-.6.8-.8,1.1h8.2Z"/>
      <g class="cls-3">
        <path class="cls-2" d="M305.8,11.4c-.1,1-.4,1.8-.6,2.3h16.8v2.2h-9.1v3.9h7.7v2.2h-7.7v4.9h10.3v2.2h-10.3v8.6h-2.4v-8.6h-11.7v-2.2h3.7v-7.1h8v-3.8h-6.2c-1,2-2.1,4.1-4.1,6l-1.9-1.5c2.7-2.4,4.4-5.7,5.5-10l2,.9ZM304.8,22v4.9h5.6v-4.9h-5.6Z"/>
        <path class="cls-2" d="M333.6,19.1c-.8-2.8-2.2-5.1-4.3-7.1l1.5-1.4c1.9,2,3.3,4.3,4.3,6.7,2.8,6.9.9,15.2-4.2,20.5l-1.6-1.4c4.5-4.6,6.1-11.1,4.3-17.3Z"/>
      </g>
      <path class="cls-2" d="M116.3,66.4c-.5-.6-1.2-.9-2.1-.9-1.3,0-2.1.5-2.6,1.4-.3.5-.4,1.4-.5,2.6h-4.1c0-1.8.4-3.3,1-4.4,1.1-2.1,3.1-3.2,5.9-3.2s4,.6,5.4,1.9c1.4,1.3,2,2.9,2,4.9s-.5,3-1.4,4.2c-.6.8-1.6,1.7-3,2.7l-1.7,1.2c-1,.7-1.8,1.3-2.1,1.6s-.7.7-1,1.2h9.3v3.7h-14.5c0-1.5.4-2.9,1-4.2.6-1.4,2-2.9,4.2-4.5,1.9-1.4,3.2-2.4,3.7-3,.9-.9,1.3-1.9,1.3-3-.1-.9-.3-1.6-.8-2.2Z"/>
      <path class="cls-2" d="M130.8,83.8c-2.7,0-4.6-.9-5.7-2.8s-1.6-4.6-1.6-8.1.5-6.2,1.6-8.1,3-2.9,5.7-2.9,4.6,1,5.7,2.9c1.1,1.9,1.6,4.6,1.6,8.1s-.5,6.2-1.6,8.1-3,2.8-5.7,2.8ZM133.2,78.5c.4-1.3.6-3.2.6-5.6s-.2-4.5-.6-5.7-1.2-1.8-2.4-1.8-2.1.6-2.5,1.8-.6,3.1-.6,5.7.2,4.3.6,5.6c.4,1.3,1.2,1.9,2.5,1.9s2-.6,2.4-1.9Z"/>
      <path class="cls-2" d="M150.6,83.3h-4.3v-14.7h-5v-2.8c1.3-.1,2.2-.1,2.8-.3.8-.2,1.5-.6,2.1-1.1.4-.4.6-.9.8-1.5.1-.4.2-.7.2-.8h3.5v21.2h-.1Z"/>
      <path class="cls-2" d="M171.6,75.5v3.3h-2.4v4.6h-4.1v-4.6h-8.4v-3.6l7.8-12.9h4.7v13.3h2.4ZM159.8,75.5h5.3v-9.2l-5.3,9.2Z"/>
      <text class="cls-1" transform="translate(106.9 34.6)"><tspan x="0" y="0">2016</tspan></text>
      <text class="cls-1" transform="translate(226.8 34.6)"><tspan x="0" y="0">2024</tspan></text>
    </g>
  </g>
</svg>