<?xml version="1.0" encoding="UTF-8"?>
<svg xmlns="http://www.w3.org/2000/svg" version="1.1" viewBox="0 0 497.5 57.8">
  <defs>
    <style>
      .cls-1 {
        fill: #c0bfbf;
      }

      .cls-2, .cls-3 {
        isolation: isolate;
      }

      .cls-3 {
        font-family: Arial-BoldMT, Arial;
        font-size: 30px;
        font-weight: 700;
      }

      .cls-3, .cls-4 {
        fill: #fff;
      }

      .cls-5 {
        fill: #152041;
      }
    </style>
  </defs>
  <!-- Generator: Adobe Illustrator 28.7.5, SVG Export Plug-In . SVG Version: 1.2.0 Build 176)  -->
  <g>
    <g id="_圖層_1" data-name="圖層_1">
      <g id="_圖層_1-2" data-name="_圖層_1">
        <g>
          <path class="cls-1" d="M471,57.8H31.3c-14.6,0-26.5-11.9-26.5-26.5S16.7,4.8,31.3,4.8h439.7c14.6,0,26.5,11.9,26.5,26.5s-11.8,26.5-26.5,26.5"/>
          <path class="cls-5" d="M466.2,53H26.5C11.9,53,0,41.1,0,26.5S11.9,0,26.5,0h439.7C480.8,0,492.7,11.9,492.7,26.5s-11.8,26.5-26.5,26.5"/>
          <g class="cls-2">
            <path class="cls-4" d="M26,11.4c-.1,1-.4,1.8-.6,2.3h16.8v2.2h-9.1v3.9h7.6v2.2h-7.6v4.9h10.3v2.2h-10.3v8.6h-2.4v-8.6h-11.6v-2.2h3.7v-7.1h8v-3.8h-6.2c-1,2-2.1,4.1-4.1,6l-1.9-1.5c2.7-2.4,4.4-5.7,5.5-10,0,0,1.9.9,1.9.9ZM25.1,22v4.9h5.6v-4.9h-5.6Z"/>
            <path class="cls-4" d="M59.7,21.3c-.6,1.4-1.1,2.6-1.6,3.3h2.8v2.1h-4.5v2.4h5.6v2.1h-5.6v6.3h-2.3v-6.4h-6.1v-2.1h6.1v-2.4h-4.7v-2.1h3.4c-.6-1.2-1.6-2.2-2.5-3.1l1.9-.8h-3.8v-2.2h5.6v-2.4h-4.9v-2.2h4.8v-3.2h2.4v3.1h4.6v2.2h-4.6v2.4h5.6v2.1h-3.9s1.7.9,1.7.9ZM52.4,20.6c1.1,1.1,1.9,2.7,2.4,4h.8c.9-1.1,1.4-2.4,2.1-4h-5.3ZM64.5,37.7h-2.4V12.1h10.9c0,2.4-.3,4.5-1.1,6.4-.3.7-1,1.5-2,1.5-1.2.1-2.2-.1-3.4-.2l-.8-2.3c.8.1,2.6.6,3.5.4.4-.1.6-.5.8-1,.3-.9.4-1.7.5-2.5h-6.2v7.1h8.8c0,3.9-1.1,7.2-2.7,10.2.8,1.2,2,2.8,4.4,4.2l-1.6,1.7c-1.7-1.1-3-2.4-4.2-3.9-1.4,1.5-2.8,3.1-3.6,3.9l-1.2-1.3v1.4h.3,0ZM64.5,35.5c1.6-1.4,2.5-2.4,3.5-3.9-1.3-2.4-2.2-5.2-2.5-8h-1v11.9ZM67.8,23.5c.2,2,.6,3.4,1.5,5.5.8-1.4,1.5-3,1.6-5.5h-3.1Z"/>
            <path class="cls-4" d="M100.8,37.7c-5.2-5.3-7.1-13.6-4.2-20.5,1-2.4,2.4-4.7,4.3-6.7l1.5,1.4c-2,2.1-3.4,4.4-4.3,7.1-1.8,6.2-.2,12.7,4.3,17.3,0,0-1.6,1.4-1.6,1.4Z"/>
          </g>
          <g class="cls-2">
            <path class="cls-4" d="M182.7,11.4c-.1,1-.4,1.8-.6,2.3h16.9v2.2h-9.1v3.9h7.6v2.2h-7.6v4.9h10.3v2.2h-10.3v8.6h-2.4v-8.6h-11.7v-2.2h3.7v-7.1h8v-3.8h-6.2c-1,2-2.1,4.1-4.1,6l-1.9-1.5c2.7-2.4,4.4-5.7,5.5-10l1.9.9h0ZM181.8,22v4.9h5.6v-4.9h-5.6Z"/>
          </g>
          <g class="cls-2">
            <path class="cls-4" d="M212.7,30.3v-4.1h8.1v4.1h-8.1Z"/>
          </g>
          <g class="cls-2">
            <path class="cls-4" d="M306.1,11.4c-.1,1-.4,1.8-.6,2.3h16.8v2.2h-9.1v3.9h7.7v2.2h-7.7v4.9h10.3v2.2h-10.3v8.6h-2.4v-8.6h-11.7v-2.2h3.7v-7.1h8v-3.8h-6.2c-1,2-2.1,4.1-4.1,6l-1.9-1.5c2.7-2.4,4.4-5.7,5.5-10l2,.9h0ZM305.2,22v4.9h5.6v-4.9h-5.6Z"/>
            <path class="cls-4" d="M334,19.1c-.8-2.8-2.2-5.1-4.3-7.1l1.5-1.4c1.9,2,3.3,4.3,4.3,6.7,2.8,6.9.9,15.2-4.2,20.5l-1.6-1.4c4.5-4.6,6.1-11.1,4.3-17.3h0Z"/>
          </g>
          <path class="cls-4" d="M484.5,26.5c0-10.1-8.2-18.3-18.3-18.3s-18.3,8.2-18.3,18.3,8.2,18.3,18.3,18.3,18.3-8.2,18.3-18.3"/>
          <polygon class="cls-5" points="468.3 26.5 474 26.5 465.5 38.8 459.8 38.8 468.3 26.5"/>
          <polygon class="cls-5" points="468.3 26.5 474 26.5 465.5 14.2 459.8 14.2 468.3 26.5"/>
        </g>
        <g class="cls-2">
          <text class="cls-3" transform="translate(106.2 36)"><tspan x="0" y="0">2016</tspan></text>
        </g>
        <g class="cls-2">
          <text class="cls-3" transform="translate(227.1 36)"><tspan x="0" y="0">2023</tspan></text>
        </g>
      </g>
    </g>
  </g>
</svg>