<?xml version="1.0" encoding="UTF-8"?>
<svg xmlns="http://www.w3.org/2000/svg" version="1.1" viewBox="0 0 393 53">
  <defs>
    <style>
      .cls-1 {
        font-family: Arial-BoldMT, Arial;
        font-size: 30px;
        font-weight: 700;
      }

      .cls-1, .cls-2 {
        fill: #fff;
      }

      .cls-3 {
        isolation: isolate;
      }

      .cls-4 {
        fill: #8e1d2b;
      }
    </style>
  </defs>
  <!-- Generator: Adobe Illustrator 28.7.5, SVG Export Plug-In . SVG Version: 1.2.0 Build 176)  -->
  <g>
    <g id="_圖層_1" data-name="圖層_1">
      <g>
        <polygon class="cls-4" points="0 0 0 53 311 53 347.3 0 0 0"/>
        <polygon class="cls-4" points="354.5 0 317.7 53 334 53 370.8 0 354.5 0"/>
        <polygon class="cls-4" points="376.8 0 340 53 356.3 53 393 0 376.8 0"/>
      </g>
      <g class="cls-3">
        <path class="cls-2" d="M111.1,37.8h-4.7l-1.9-4.9h-8.6l-1.8,4.9h-4.6l8.4-21.5h4.6l8.6,21.5ZM103.1,29.3l-3-8-2.9,8h5.9Z"/>
        <path class="cls-2" d="M127.5,37.8h-4.1v-7.9c0-1.7,0-2.8-.3-3.3-.2-.5-.5-.9-.9-1.1s-.9-.4-1.4-.4-1.4.2-1.9.6-1,.9-1.2,1.6c-.2.6-.3,1.8-.3,3.6v7h-4.1v-15.7h3.8v2.3c1.4-1.8,3.1-2.6,5.1-2.6s1.7.2,2.5.5,1.3.7,1.7,1.3.7,1.1.8,1.7.2,1.6.2,2.8v9.6h.1Z"/>
        <path class="cls-2" d="M145.9,37.8h-4.1v-7.9c0-1.7-.1-2.8-.3-3.3s-.5-.9-.9-1.1-.9-.4-1.4-.4-1.4.2-1.9.6-1,.9-1.2,1.6c-.2.6-.3,1.8-.3,3.6v7h-4.1v-15.7h3.8v2.3c1.4-1.8,3.1-2.6,5.1-2.6s1.7.2,2.5.5,1.3.7,1.7,1.3.7,1.1.8,1.7.2,1.6.2,2.8v9.6h0Z"/>
        <path class="cls-2" d="M160.3,37.8v-2.3c-.6.8-1.3,1.5-2.2,2s-1.9.7-2.9.7-2-.2-2.8-.7-1.4-1.1-1.8-1.9-.6-2-.6-3.4v-9.8h4.1v7.1c0,2.2.1,3.5.2,4s.4.9.8,1.2.9.4,1.5.4,1.3-.2,1.9-.6.9-.9,1.1-1.4c.2-.6.3-2,.3-4.2v-6.6h4.1v15.6h-3.7q0-.1,0-.1Z"/>
        <path class="cls-2" d="M171.4,27l-3.7-.7c.4-1.5,1.1-2.6,2.2-3.3s2.5-1.1,4.6-1.1,3.2.2,4.1.7,1.5,1,1.9,1.7.5,1.9.5,3.7v4.8c0,1.4.1,2.4.2,3,.1.7.4,1.3.7,2.1h-4.1c-.1-.3-.2-.7-.4-1.2-.1-.2-.1-.4-.1-.5-.7.7-1.5,1.2-2.3,1.5s-1.7.5-2.6.5c-1.6,0-2.9-.4-3.8-1.3s-1.4-2-1.4-3.3.2-1.7.6-2.4c.4-.7,1-1.2,1.8-1.6s1.8-.7,3.3-1c1.9-.4,3.3-.7,4-1v-.4c0-.8-.2-1.4-.6-1.7-.4-.3-1.1-.5-2.2-.5s-1.3.1-1.7.4-.7.8-1,1.6ZM176.9,30.3c-.5.2-1.4.4-2.5.6s-1.9.5-2.2.7c-.5.4-.8.9-.8,1.5s.2,1.1.6,1.5,1,.6,1.6.6,1.5-.2,2.1-.7c.5-.4.8-.8,1-1.4.1-.4.2-1,.2-2v-.8h0Z"/>
        <path class="cls-2" d="M185,37.8v-21.5h4.1v21.5h-4.1Z"/>
        <path class="cls-2" d="M201.8,37.8v-21.5h9.1c2.3,0,4,.2,5,.6s1.9,1.1,2.5,2.1.9,2.1.9,3.4-.5,2.9-1.4,4-2.4,1.7-4.2,2c.9.5,1.7,1.1,2.3,1.8s1.4,1.8,2.5,3.5l2.6,4.2h-5.2l-3.1-4.7c-1.1-1.7-1.9-2.7-2.3-3.2-.4-.4-.8-.7-1.3-.9-.5-.2-1.2-.2-2.2-.2h-.9v9h-4.3ZM206.1,25.4h3.2c2.1,0,3.4-.1,3.9-.3s.9-.5,1.2-.9.4-1,.4-1.6-.2-1.3-.6-1.8-.9-.7-1.6-.8c-.4,0-1.4-.1-3.2-.1h-3.4v5.5s.1,0,.1,0Z"/>
        <path class="cls-2" d="M232.4,32.8l4.1.7c-.5,1.5-1.4,2.6-2.5,3.4-1.1.8-2.6,1.2-4.3,1.2-2.7,0-4.7-.9-6-2.7-1-1.4-1.5-3.2-1.5-5.4s.7-4.6,2-6.1,3.1-2.2,5.1-2.2,4.1.8,5.5,2.3,2,3.9,1.9,7h-10.3c0,1.2.4,2.2,1,2.8s1.4,1,2.4,1,1.2-.2,1.6-.5.8-.7,1-1.5ZM232.6,28.7c0-1.2-.3-2.1-.9-2.7s-1.3-.9-2.1-.9-1.6.3-2.2,1-.9,1.5-.9,2.7h6.1q0-.1,0-.1Z"/>
        <path class="cls-2" d="M239.9,22.2h3.8v2.3c.5-.8,1.2-1.4,2-1.9s1.8-.7,2.8-.7c1.8,0,3.3.7,4.6,2.1s1.9,3.4,1.9,5.9-.6,4.6-1.9,6.1-2.8,2.2-4.6,2.2-1.6-.2-2.3-.5-1.4-.9-2.2-1.8v7.8h-4.1v-21.5ZM244,29.7c0,1.7.3,3,1,3.9.7.8,1.5,1.3,2.5,1.3s1.8-.4,2.4-1.1,1-2,1-3.8-.3-2.8-1-3.6-1.5-1.2-2.4-1.2-1.8.4-2.5,1.2c-.6.7-1,1.8-1,3.3Z"/>
        <path class="cls-2" d="M257.4,29.8c0-1.4.3-2.7,1-4s1.6-2.3,2.9-2.9,2.6-1,4.1-1c2.4,0,4.3.8,5.8,2.3s2.3,3.5,2.3,5.8-.8,4.3-2.3,5.9c-1.5,1.5-3.4,2.3-5.7,2.3s-2.8-.3-4.1-1-2.3-1.6-3-2.8c-.6-1.3-1-2.8-1-4.6ZM261.7,30c0,1.5.4,2.7,1.1,3.5s1.6,1.2,2.7,1.2,2-.4,2.7-1.2,1.1-2,1.1-3.6-.4-2.7-1.1-3.5-1.6-1.2-2.7-1.2-2,.4-2.7,1.2-1.1,2-1.1,3.6Z"/>
        <path class="cls-2" d="M280.7,37.8h-4.1v-15.6h3.8v2.2c.7-1,1.2-1.7,1.8-2.1s1.1-.5,1.8-.5,1.8.3,2.7.8l-1.3,3.6c-.7-.4-1.3-.7-1.9-.7s-1.1.2-1.5.5-.7.9-.9,1.7c-.2.8-.3,2.6-.3,5.2v4.9s-.1,0-.1,0Z"/>
        <path class="cls-2" d="M295.5,22.2v3.3h-2.8v6.3c0,1.3,0,2,.1,2.2s.2.4.4.5.4.2.7.2.9,0,1.7-.4l.4,3.2c-1,.4-2,.6-3.3.6s-1.4,0-2-.4c-.6-.2-1-.6-1.3-1s-.5-.9-.6-1.6c-.1-.5-.1-1.4-.1-2.9v-6.8h-1.9v-3.3h1.9v-3.1l4.1-2.4v5.5h2.7q0,.1,0,.1Z"/>
      </g>
      <text class="cls-1" transform="translate(15.5 37.4)"><tspan x="0" y="0">2024</tspan></text>
    </g>
  </g>
</svg>