<?xml version="1.0" encoding="UTF-8"?>
<svg xmlns="http://www.w3.org/2000/svg" version="1.1" viewBox="0 0 497.5 57.8">
  <defs>
    <style>
      .cls-1 {
        fill: #c0bfbf;
      }

      .cls-2, .cls-3 {
        isolation: isolate;
      }

      .cls-3 {
        font-family: Arial-BoldMT, Arial;
        font-size: 30px;
        font-weight: 700;
      }

      .cls-3, .cls-4 {
        fill: #fff;
      }

      .cls-5 {
        fill: #152041;
      }
    </style>
  </defs>
  <!-- Generator: Adobe Illustrator 28.7.5, SVG Export Plug-In . SVG Version: 1.2.0 Build 176)  -->
  <g>
    <g id="_圖層_1" data-name="圖層_1">
      <g id="_圖層_1-2" data-name="_圖層_1">
        <g>
          <path class="cls-1" d="M471,57.8H31.3c-14.6,0-26.5-11.9-26.5-26.5S16.7,4.8,31.3,4.8h439.7c14.6,0,26.5,11.9,26.5,26.5s-11.8,26.5-26.5,26.5"/>
          <path class="cls-5" d="M466.2,53H26.5C11.9,53,0,41.1,0,26.5S11.9,0,26.5,0h439.7C480.8,0,492.7,11.9,492.7,26.5s-11.8,26.5-26.5,26.5"/>
          <g class="cls-2">
            <path class="cls-4" d="M37.5,37.8h-4.7l-1.9-4.9h-8.6l-1.8,4.9h-4.5l8.4-21.5h4.6l8.5,21.5ZM29.6,29.3l-3-8-2.9,8h5.9Z"/>
            <path class="cls-4" d="M54,37.8h-4.1v-7.9c0-1.7,0-2.8-.3-3.3s-.5-.9-.9-1.1-.8-.5-1.4-.5-1.4.2-1.9.6-1,.9-1.2,1.6-.3,1.8-.3,3.6v7h-4.1v-15.6h3.8v2.3c1.4-1.8,3.1-2.6,5.1-2.6s1.7.2,2.5.5,1.3.7,1.7,1.3.7,1.1.8,1.7.2,1.6.2,2.8v9.6s0,0,.1,0Z"/>
            <path class="cls-4" d="M72.3,37.8h-4.1v-7.9c0-1.7,0-2.8-.3-3.3-.2-.5-.5-.9-.9-1.1s-.8-.5-1.4-.5-1.4.2-1.9.6-1,.9-1.2,1.6-.3,1.8-.3,3.6v7h-4.1v-15.6h3.8v2.3c1.4-1.8,3.1-2.6,5.1-2.6s1.7.2,2.5.5,1.3.7,1.7,1.3.7,1.1.8,1.7.2,1.6.2,2.8v9.6s0,0,.1,0Z"/>
            <path class="cls-4" d="M86.7,37.8v-2.3c-.6.8-1.3,1.5-2.2,2s-1.9.7-2.9.7-2-.2-2.8-.7-1.4-1.1-1.8-1.9-.6-2-.6-3.4v-9.8h4.1v7.1c0,2.2,0,3.5.2,4s.4.9.8,1.2.9.4,1.5.4,1.3-.2,1.9-.6c.6-.4.9-.9,1.1-1.4.2-.6.3-2,.3-4.2v-6.6h4.1v15.6h-3.7Z"/>
            <path class="cls-4" d="M97.9,27l-3.7-.7c.4-1.5,1.1-2.6,2.2-3.3s2.5-1.1,4.6-1.1,3.2.2,4.1.7,1.5,1,1.9,1.7.5,1.9.5,3.7v4.8c0,1.4,0,2.4.2,3,0,.7.4,1.3.7,2.1h-4.1c0-.3-.2-.7-.4-1.2v-.5c-.7.7-1.5,1.2-2.3,1.5s-1.7.5-2.6.5c-1.6,0-2.9-.4-3.8-1.3s-1.4-2-1.4-3.3.2-1.7.6-2.4c.4-.7,1-1.2,1.8-1.6s1.8-.7,3.3-1c1.9-.4,3.3-.7,4-1v-.4c0-.8-.2-1.4-.6-1.7-.4-.3-1.1-.5-2.2-.5s-1.3.1-1.7.4-.8.8-1,1.6h0ZM103.4,30.3c-.5.2-1.4.4-2.5.6s-1.9.5-2.2.7c-.5.4-.8.9-.8,1.5s.2,1.1.6,1.5,1,.6,1.6.6,1.5-.2,2.1-.7c.5-.4.8-.8,1-1.4,0-.4.2-1,.2-2,0,0,0-.8,0-.8Z"/>
            <path class="cls-4" d="M111.5,37.8v-21.5h4.1v21.5h-4.1Z"/>
            <path class="cls-4" d="M128.2,37.8v-21.5h9.1c2.3,0,4,.2,5,.6s1.9,1.1,2.5,2.1.9,2.1.9,3.4-.5,2.9-1.4,4-2.4,1.7-4.2,2c.9.5,1.7,1.1,2.3,1.8.6.7,1.4,1.8,2.5,3.5l2.6,4.2h-5.2l-3.1-4.7c-1.1-1.7-1.9-2.7-2.3-3.2-.4-.4-.8-.7-1.3-.9-.5-.2-1.2-.2-2.2-.2h-.9v9h-4.3ZM132.5,25.4h3.2c2.1,0,3.4-.1,3.9-.3s.9-.5,1.2-.9.4-1,.4-1.6-.2-1.3-.6-1.8-.9-.7-1.6-.8c-.4,0-1.4-.1-3.2-.1h-3.4v5.5h.1Z"/>
            <path class="cls-4" d="M158.8,32.8l4.1.7c-.5,1.5-1.4,2.6-2.5,3.4-1.1.8-2.6,1.2-4.3,1.2-2.7,0-4.7-.9-6-2.7-1-1.4-1.5-3.2-1.5-5.4s.7-4.6,2-6.1,3.1-2.2,5.1-2.2,4.1.8,5.5,2.3,2,3.9,1.9,7h-10.3c0,1.2.4,2.2,1,2.8.6.7,1.4,1,2.4,1s1.2-.2,1.6-.5.8-.7,1-1.5ZM159,28.7c0-1.2-.3-2.1-.9-2.7s-1.3-1-2.1-1-1.6.3-2.2,1-.9,1.5-.9,2.7h6.1,0Z"/>
            <path class="cls-4" d="M166.4,22.2h3.8v2.3c.5-.8,1.2-1.4,2-1.9s1.8-.7,2.8-.7c1.8,0,3.3.7,4.6,2.1s1.9,3.4,1.9,5.9-.6,4.6-1.9,6.1c-1.3,1.4-2.8,2.2-4.6,2.2s-1.6-.2-2.3-.5-1.4-.9-2.2-1.8v7.8h-4.1v-21.5ZM170.4,29.7c0,1.7.3,3,1,3.9.7.8,1.5,1.3,2.5,1.3s1.8-.4,2.4-1.2c.6-.8,1-2,1-3.8s-.3-2.8-1-3.6-1.5-1.2-2.4-1.2-1.8.4-2.5,1.2c-.6.8-1,1.9-1,3.4Z"/>
            <path class="cls-4" d="M183.9,29.8c0-1.4.3-2.7,1-4s1.6-2.3,2.9-2.9,2.6-1,4.1-1c2.4,0,4.3.8,5.8,2.3s2.3,3.5,2.3,5.8-.8,4.3-2.3,5.9c-1.5,1.5-3.4,2.3-5.7,2.3s-2.8-.3-4.1-1-2.3-1.6-3-2.8c-.7-1.3-1-2.8-1-4.6ZM188.1,30c0,1.5.4,2.7,1.1,3.5s1.6,1.2,2.7,1.2,2-.4,2.7-1.2,1.1-2,1.1-3.6-.4-2.7-1.1-3.5-1.6-1.2-2.7-1.2-2,.4-2.7,1.2-1.1,2-1.1,3.6Z"/>
            <path class="cls-4" d="M207.1,37.8h-4.1v-15.6h3.8v2.2c.7-1,1.2-1.7,1.8-2.1s1.1-.5,1.8-.5,1.8.3,2.7.8l-1.3,3.6c-.7-.4-1.3-.7-1.9-.7s-1.1.2-1.5.5-.7.9-.9,1.7-.3,2.6-.3,5.2v4.9h-.1Z"/>
            <path class="cls-4" d="M221.9,22.2v3.3h-2.8v6.3c0,1.3,0,2,.1,2.2s.2.4.4.5.4.2.7.2.9,0,1.7-.4l.4,3.2c-1,.4-2,.6-3.3.6s-1.4,0-2-.4c-.6-.2-1-.6-1.3-1s-.5-.9-.6-1.6c-.1-.5-.1-1.4-.1-2.9v-6.8h-1.9v-3.3h1.9v-3.1l4.1-2.4v5.5h2.7Z"/>
            <path class="cls-4" d="M223.4,33.3l4.1-.6c.2.8.5,1.4,1.1,1.8.5.4,1.3.6,2.3.6s1.9-.2,2.4-.6c.4-.3.5-.6.5-1.1s-.1-.6-.3-.8-.7-.4-1.4-.5c-3.3-.7-5.4-1.4-6.3-2-1.2-.8-1.8-2-1.8-3.5s.5-2.5,1.6-3.4,2.7-1.4,5-1.4,3.7.3,4.7,1,1.7,1.7,2.1,3.1l-3.9.7c-.2-.6-.5-1.1-.9-1.4s-1.1-.5-2-.5-1.9.2-2.3.5c-.3.2-.5.5-.5.8s.1.5.4.7c.4.3,1.7.7,3.8,1.2s3.7,1.1,4.6,1.8c.9.7,1.3,1.8,1.3,3.1s-.6,2.7-1.8,3.7-3,1.5-5.3,1.5-3.8-.4-5-1.3-2.1-1.9-2.4-3.4h0Z"/>
            <path class="cls-4" d="M256.7,44.1h-2.8c-1.5-2.3-2.6-4.6-3.4-7-.8-2.4-1.2-4.8-1.2-7.1s.5-5.5,1.5-8c.8-2.2,1.9-4.2,3.2-6h2.8c-1.3,3-2.3,5.5-2.8,7.6s-.8,4.3-.8,6.6.1,3.2.4,4.9.7,3.3,1.2,4.8c.4.9,1,2.3,1.9,4.2Z"/>
            <path class="cls-4" d="M334.4,32v-4.1h8.1v4.1h-8.1Z"/>
            <path class="cls-4" d="M418.8,44.1c.8-1.7,1.4-3.1,1.7-4s.6-2,.9-3.2.5-2.4.6-3.5.2-2.2.2-3.3c0-2.3-.2-4.5-.7-6.6s-1.4-4.6-2.8-7.6h2.8c1.5,2.1,2.6,4.3,3.4,6.7s1.2,4.7,1.2,7.2-.3,4.2-1,6.6c-.7,2.6-1.9,5.2-3.6,7.8h-2.7Z"/>
          </g>
          <path class="cls-4" d="M484.5,26.5c0-10.1-8.2-18.3-18.3-18.3s-18.3,8.2-18.3,18.3,8.2,18.3,18.3,18.3,18.3-8.2,18.3-18.3"/>
          <polygon class="cls-5" points="468.3 26.5 474 26.5 465.5 38.8 459.8 38.8 468.3 26.5"/>
          <polygon class="cls-5" points="468.3 26.5 474 26.5 465.5 14.2 459.8 14.2 468.3 26.5"/>
        </g>
        <g class="cls-2">
          <text class="cls-3" transform="translate(257.4 37.7)"><tspan x="0" y="0">2016</tspan></text>
        </g>
        <g class="cls-2">
          <text class="cls-3" transform="translate(349.9 37.7)"><tspan x="0" y="0">2023</tspan></text>
        </g>
      </g>
    </g>
  </g>
</svg>