<?xml version="1.0" encoding="UTF-8"?>
<svg xmlns="http://www.w3.org/2000/svg" version="1.1" viewBox="0 0 393 53">
  <defs>
    <style>
      .cls-1 {
        font-family: Arial-BoldMT, Arial;
        font-size: 30px;
        font-weight: 700;
      }

      .cls-1, .cls-2 {
        fill: #fff;
      }

      .cls-3 {
        isolation: isolate;
      }

      .cls-4 {
        fill: #8e1d2b;
      }
    </style>
  </defs>
  <!-- Generator: Adobe Illustrator 28.7.5, SVG Export Plug-In . SVG Version: 1.2.0 Build 176)  -->
  <g>
    <g id="_圖層_1" data-name="圖層_1">
      <g>
        <polygon class="cls-4" points="0 0 0 53 311 53 347.3 0 0 0"/>
        <polygon class="cls-4" points="354.5 0 317.7 53 334 53 370.8 0 354.5 0"/>
        <polygon class="cls-4" points="376.8 0 340 53 356.3 53 393 0 376.8 0"/>
      </g>
      <g class="cls-3">
        <path class="cls-2" d="M92.4,11.4c0,1-.4,1.8-.6,2.3h16.8v2.2h-9.2v3.9h7.6v2.2h-7.6v4.9h10.3v2.2h-10.3v8.6h-2.4v-8.6h-11.6v-2.2h3.7v-7.1h8v-3.8h-6.2c-1,2-2.1,4.1-4.1,6l-1.9-1.5c2.7-2.4,4.4-5.7,5.5-10l2,.9ZM91.4,22v4.9h5.6v-4.9h-5.6Z"/>
        <path class="cls-2" d="M122.4,11.4c0,1-.4,1.8-.6,2.3h16.8v2.2h-9.1v3.9h7.6v2.2h-7.6v4.9h10.3v2.2h-10.3v8.6h-2.4v-8.6h-11.7v-2.2h3.7v-7.1h8v-3.8h-6.2c-1,2-2.1,4.1-4.1,6l-1.9-1.5c2.7-2.4,4.4-5.7,5.5-10l2,.9ZM121.4,22v4.9h5.6v-4.9h-5.6Z"/>
        <path class="cls-2" d="M156,21.3c-.6,1.4-1.1,2.6-1.6,3.3h2.8v2.1h-4.5v2.4h5.6v2.1h-5.6v6.3h-2.3v-6.4h-6.1v-2.1h6.1v-2.4h-4.7v-2.1h3.4c-.6-1.2-1.6-2.2-2.5-3.1l1.9-.8h-3.8v-2.2h5.8v-2.4h-4.9v-2.2h4.8v-3.2h2.4v3.1h4.6v2.2h-4.6v2.4h5.6v2.1h-3.9l1.5.9ZM148.7,20.6c1.1,1.1,1.9,2.7,2.4,4h.8c.9-1.1,1.4-2.4,2.1-4h-5.3ZM160.8,37.7h-2.4V12.1h10.9c-.1,2.4-.3,4.5-1.1,6.4-.3.7-1,1.5-2,1.5-1.2.1-2.2-.1-3.4-.2l-.8-2.3c.8.1,2.6.6,3.5.4.4-.1.6-.5.8-1,.3-.9.4-1.7.5-2.5h-6.2v7.1h8.8c-.1,3.9-1.1,7.2-2.7,10.2.8,1.2,2,2.8,4.4,4.2l-1.6,1.7c-1.7-1.1-3-2.4-4.2-3.9-1.4,1.5-2.8,3.1-3.6,3.9l-1.2-1.3v1.4s.3,0,.3,0ZM160.8,35.5c1.6-1.4,2.5-2.4,3.5-3.9-1.3-2.4-2.2-5.2-2.5-8h-1v11.9ZM164.1,23.5c.2,2,.6,3.4,1.5,5.5.8-1.4,1.5-3,1.6-5.5h-3.1Z"/>
      </g>
      <text class="cls-1" transform="translate(11.5 35.5)"><tspan x="0" y="0">2024</tspan></text>
    </g>
  </g>
</svg>